<svg version="1.1"
      xmlns="http://www.w3.org/2000/svg"
      xmlns:xlink="http://www.w3.org/1999/xlink"  id="snapshot-70765" width="250" height="250" viewBox="0 0 250 250"><desc>This image was made on Patterninja.com</desc><defs>
<!-- image 94106 -->
<g id="transformed-94106" data-image="94106" transform="translate(-177.5, -177.49999999999997) rotate(325, 187.5, 187.49999999999997)"><g><svg version="1.1" width="375px" height="374.99999999999994px" viewBox="0 0 375 374.99999999999994"><g id="original-94106"><svg xmlns="http://www.w3.org/2000/svg" xmlns:xlink="http://www.w3.org/1999/xlink" viewBox="0 0 640 640" version="1.1" preserveAspectRatio="xMidYMid meet">
  <defs>
    <path id="a" d="M546.55 331.05c0 30.18-62.01 52.58-132.47 62.54-6.13.87-13.46 39.61-19.68 40.29-9.28 1.01-18.98-37.65-28.23-37.04-7.01.46-11.35 37.9-18.08 37.04-6.61-.85-15.62-40-22.11-40-30.34 0-83.17.43-111.58 0-7.32-.11-10.61 50.06-16.11 50-26.82-.29-7.15-43.67-15.01-45.4-9.64-2.13-17.21 49.78-23.48 45.4-17.22-12.02-10.05-103.83-10.05-119.16 0-42.59 80.77-80.84 175.73-80.84 94.97 0 221.07 44.58 221.07 87.17z" fill="rgba(176, 131, 94, 0.5465116279069767)" stroke="none"/>
    <path id="b" d="M462.73 314.37c0 5.52-3.59 10-8 10-4.42 0-8-4.48-8-10s3.58-10 8-10c4.41 0 8 4.48 8 10z" fill="rgba(176, 131, 94, 0.5465116279069767)" stroke="none"/>
    <path id="c" d="M541.68 334.98c-5.15 4.2-9.2-.76-12.14-14.88-.32-1.54.91-2.97 2.48-2.88 1.8.1 4.39.24 6.27.34 1.72.1 3.31.95 4.34 2.34 4.42 5.94 4.1 10.96-.95 15.08z" fill="rgba(176, 131, 94, 0.5465116279069767)" stroke="none"/>
    <path id="d" d="M207.06 264.01c15.92-5.69 32.67 6.11 32.67 23.02v-6.8c0 44.06-35.72 79.78-79.78 79.78h2.64c-7.48 0-13.57-6-13.68-13.48-.19-12.29-.12-8.02-.21-13.39-.43-28.72 17.47-54.53 44.52-64.19l13.84-4.94z" fill="rgba(176, 131, 94, 0.5465116279069767)" stroke="none"/>
    <path id="e" d="M410.4 273.85c5.53 0 10 4.48 10 10v8.36c0 5.52-4.47 10-10 10h-.47c-10.14 0-18.36-8.22-18.36-18.36 0-2 0 3.68 0 0 0-5.52 4.48-10 10-10h8.83z" fill="rgba(176, 131, 94, 0.5465116279069767)" stroke="none"/>
  </defs>
  <use fill="#ecc793" xlink:href="#a"/>
  <use fill="#000000" fill-opacity=".82" xlink:href="#b"/>
  <use fill="#e39b35" xlink:href="#c"/>
  <use fill="#e39b35" xlink:href="#d"/>
  <use fill="#e39b35" xlink:href="#e"/>
</svg>
</g></svg></g></g>
<!-- /image 94106 -->
</defs><rect x="0" y="0" width="250" height="250" fill="rgba(226, 181, 143, 1)"></rect><use xlink:href="#transformed-94106" transform="translate(-250, -250)"></use><use xlink:href="#transformed-94106" transform="translate(0, -250)"></use><use xlink:href="#transformed-94106" transform="translate(250, -250)"></use><use xlink:href="#transformed-94106" transform="translate(-250, 0)"></use><use xlink:href="#transformed-94106" transform="translate(0, 0)"></use><use xlink:href="#transformed-94106" transform="translate(250, 0)"></use><use xlink:href="#transformed-94106" transform="translate(-250, 250)"></use><use xlink:href="#transformed-94106" transform="translate(0, 250)"></use><use xlink:href="#transformed-94106" transform="translate(250, 250)"></use></svg>