<?xml version="1.0" encoding="UTF-8" standalone="no"?>
<!DOCTYPE svg PUBLIC "-//W3C//DTD SVG 1.1//EN" "http://www.w3.org/Graphics/SVG/1.1/DTD/svg11.dtd">
<svg version="1.1" xmlns="http://www.w3.org/2000/svg" xmlns:xlink="http://www.w3.org/1999/xlink" preserveAspectRatio="xMidYMid meet" viewBox="0 0 640 640" width="640" height="640"><defs><path d="M546.55 331.05C546.55 361.23 484.54 383.63 414.08 393.59C407.95 394.46 400.62 433.2 394.4 433.88C385.12 434.89 375.42 396.23 366.17 396.84C359.16 397.3 354.82 434.74 348.09 433.88C341.48 433.03 332.47 393.88 325.98 393.88C295.64 393.88 242.81 394.31 214.4 393.88C207.08 393.77 203.79 443.94 198.29 443.88C171.47 443.59 191.14 400.21 183.28 398.48C173.64 396.35 166.07 448.26 159.8 443.88C142.58 431.86 149.75 340.05 149.75 324.72C149.75 282.13 230.52 243.88 325.48 243.88C420.45 243.88 546.55 288.46 546.55 331.05Z" id="a1a5E9s1kZ"></path><path d="M462.73 314.37C462.73 319.89 459.14 324.37 454.73 324.37C450.31 324.37 446.73 319.89 446.73 314.37C446.73 308.85 450.31 304.37 454.73 304.37C459.14 304.37 462.73 308.85 462.73 314.37Z" id="ckk0scdLH"></path><path d="M541.68 334.98C536.53 339.18 532.48 334.22 529.54 320.1C529.22 318.56 530.45 317.13 532.02 317.22C533.82 317.32 536.41 317.46 538.29 317.56C540.01 317.66 541.6 318.51 542.63 319.9C547.05 325.84 546.73 330.86 541.68 334.98Z" id="a7lezvjZt6"></path><path d="M207.06 264.01C222.98 258.32 239.73 270.12 239.73 287.03C239.73 301.63 239.73 274.65 239.73 280.23C239.73 324.29 204.01 360.01 159.95 360.01C157.78 360.01 178.02 360.01 162.59 360.01C155.11 360.01 149.02 354.01 148.91 346.53C148.72 334.24 148.79 338.51 148.7 333.14C148.27 304.42 166.17 278.61 193.22 268.95C202.52 265.63 195.24 268.23 207.06 264.01Z" id="aCfLInRZE"></path><path d="M410.4 273.85C415.93 273.85 420.4 278.33 420.4 283.85C420.4 287.53 420.4 288.54 420.4 292.21C420.4 297.73 415.93 302.21 410.4 302.21C406.64 302.21 412.03 302.21 409.93 302.21C399.79 302.21 391.57 293.99 391.57 283.85C391.57 281.85 391.57 287.53 391.57 283.85C391.57 278.33 396.05 273.85 401.57 273.85C405.34 273.85 406.64 273.85 410.4 273.85Z" id="f2lo25o0p"></path></defs><g><g><g><use xlink:href="#a1a5E9s1kZ" opacity="1" fill="#ecc793" fill-opacity="1"></use></g><g><use xlink:href="#ckk0scdLH" opacity="1" fill="#000000" fill-opacity="0.82"></use></g><g><use xlink:href="#a7lezvjZt6" opacity="1" fill="#e39b35" fill-opacity="1"></use></g><g><use xlink:href="#aCfLInRZE" opacity="1" fill="#e39b35" fill-opacity="1"></use></g><g><use xlink:href="#f2lo25o0p" opacity="1" fill="#e39b35" fill-opacity="1"></use></g></g></g></svg>